<!-- icon666.com - MILLIONS vector ICONS FREE --><svg id="Layer_1" viewBox="0 0 91 91" xmlns="http://www.w3.org/2000/svg" data-name="Layer 1"><path d="m75.09 60.09h-44.25a1.49 1.49 0 0 1 -1.44-1.09l-9.4-32.52a1.51 1.51 0 0 1 1.44-1.92h67a1.5 1.5 0 0 1 1.45 1.9l-7.14 26.18a7.66 7.66 0 0 1 -7.66 7.45zm-43.09-3h43.09a4.67 4.67 0 0 0 4.67-4.66 1.33 1.33 0 0 1 0-.4l6.67-24.47h-63z" fill="#000000" style="fill: rgb(255, 255, 255);"></path><path d="m40 83.93a8.58 8.58 0 1 1 8.57-8.57 8.59 8.59 0 0 1 -8.57 8.57zm0-14.15a5.58 5.58 0 1 0 5.57 5.58 5.58 5.58 0 0 0 -5.57-5.58z" fill="#000000" style="fill: rgb(255, 255, 255);"></path><path d="m68.39 83.93a8.58 8.58 0 1 1 8.61-8.57 8.58 8.58 0 0 1 -8.61 8.57zm0-14.15a5.58 5.58 0 1 0 5.61 5.58 5.58 5.58 0 0 0 -5.61-5.58z" fill="#000000" style="fill: rgb(255, 255, 255);"></path><path d="m21.47 27.56a1.51 1.51 0 0 1 -1.47-1.07l-4-13.49-13.55-2a1.5 1.5 0 0 1 .44-3l14.51 2.19a1.51 1.51 0 0 1 1.22 1.06l4.29 14.38a1.5 1.5 0 0 1 -1 1.87 1.59 1.59 0 0 1 -.44.06z" fill="#000000" style="fill: rgb(255, 255, 255);"></path></svg>